<svg xmlns="http://www.w3.org/2000/svg" width="24" height="24" fill="none" viewBox="0 0 24 24"><path fill="#475569" d="M2 20v-2.625q0-.797.398-1.465a2.7 2.7 0 0 1 1.057-1.02q1.408-.726 2.863-1.09 1.455-.362 2.955-.363 1.5 0 2.954.364 1.455.363 2.864 1.09.66.351 1.057 1.02.398.667.398 1.464V20zm16.364 0v-2.812a3.86 3.86 0 0 0-.557-1.981q-.557-.95-1.58-1.629a11.2 11.2 0 0 1 4.091 1.313q.819.468 1.25 1.043.432.573.432 1.254V20zm-9.091-7.5q-1.5 0-2.568-1.102-1.07-1.101-1.069-2.648 0-1.547 1.069-2.648T9.273 5t2.568 1.102 1.068 2.648-1.068 2.648T9.273 12.5m9.09-3.75q0 1.547-1.067 2.648-1.07 1.102-2.569 1.102a4.4 4.4 0 0 1-.636-.059 5 5 0 0 1-.636-.129 5.62 5.62 0 0 0 0-7.124q.318-.119.636-.153A6 6 0 0 1 14.727 5q1.5 0 2.569 1.102 1.068 1.101 1.068 2.648M3.819 18.125h10.91v-.75a.9.9 0 0 0-.455-.797 11.6 11.6 0 0 0-2.477-.95 10.25 10.25 0 0 0-5.046 0q-1.25.318-2.477.95a.9.9 0 0 0-.33.328.9.9 0 0 0-.125.469zm5.455-7.5q.75 0 1.284-.55.534-.552.534-1.325 0-.774-.534-1.324a1.73 1.73 0 0 0-1.284-.551q-.75 0-1.284.55a1.83 1.83 0 0 0-.534 1.325q0 .774.534 1.324t1.284.551"/></svg>