<svg xmlns="http://www.w3.org/2000/svg" width="24" height="24" fill="none" viewBox="0 0 24 24"><path fill="#475569" d="m5.6 9.996 1.95.825q.35-.7.725-1.35t.825-1.3l-1.4-.275zm3.55 2.075L12 14.896q1.05-.4 2.25-1.225t2.25-1.875a13.5 13.5 0 0 0 2.738-3.888q.987-2.137.862-3.937-1.8-.126-3.95.862a13.4 13.4 0 0 0-3.9 2.738q-1.05 1.05-1.875 2.25T9.15 12.07m4.45-1.625a1.92 1.92 0 0 1-.575-1.413q0-.838.575-1.412.575-.576 1.425-.575.85 0 1.425.575t.575 1.412a1.92 1.92 0 0 1-.575 1.413q-.575.575-1.425.575t-1.425-.575m.475 8.025 2.1-2.1-.275-1.4q-.65.45-1.3.812t-1.35.713zM21.9 2.146q.474 3.024-.587 5.887-1.063 2.863-3.663 5.463l.5 2.475q.1.5-.05.975-.15.474-.5.825l-4.2 4.2-2.1-4.925-4.275-4.275-4.925-2.1 4.175-4.2q.35-.35.837-.5.488-.15.988-.05l2.475.5q2.6-2.601 5.45-3.675 2.85-1.075 5.875-.6m-18.025 13.8q.875-.876 2.138-.888t2.137.863.862 2.137Q9 19.32 8.125 20.196q-.625.625-2.088 1.075-1.461.45-4.037.8.35-2.575.8-4.038.45-1.462 1.075-2.087m1.425 1.4q-.25.249-.5.912a6.5 6.5 0 0 0-.35 1.338q.675-.1 1.337-.338.663-.237.913-.487.3-.3.325-.725a.9.9 0 0 0-.275-.725.95.95 0 0 0-.725-.288 1.03 1.03 0 0 0-.725.313"/></svg>